<?xml version="1.0" encoding="UTF-8" standalone="no"?>
<!-- Generator: Adobe Illustrator 27.5.0, SVG Export Plug-In . SVG Version: 6.00 Build 0)  -->

<svg
   version="1.1"
   id="Layer_1"
   x="0px"
   y="0px"
   viewBox="0 0 481.92998 212.57"
   xml:space="preserve"
   sodipodi:docname="NITD23_logo_lilla_cutout.svg"
   width="481.92999"
   height="212.57001"
   inkscape:version="1.2.2 (b0a8486, 2022-12-01)"
   xmlns:inkscape="http://www.inkscape.org/namespaces/inkscape"
   xmlns:sodipodi="http://sodipodi.sourceforge.net/DTD/sodipodi-0.dtd"
   xmlns="http://www.w3.org/2000/svg"
   xmlns:svg="http://www.w3.org/2000/svg"><defs
   id="defs199" /><sodipodi:namedview
   id="namedview197"
   pagecolor="#ffffff"
   bordercolor="#000000"
   borderopacity="0.25"
   inkscape:showpageshadow="2"
   inkscape:pageopacity="0.0"
   inkscape:pagecheckerboard="0"
   inkscape:deskcolor="#d1d1d1"
   showgrid="false"
   inkscape:zoom="0.96633956"
   inkscape:cx="129.87153"
   inkscape:cy="177.47385"
   inkscape:window-width="1786"
   inkscape:window-height="1049"
   inkscape:window-x="0"
   inkscape:window-y="25"
   inkscape:window-maximized="0"
   inkscape:current-layer="Layer_1" />
<style
   type="text/css"
   id="style132">
	.st0{fill:#F5A06D;}
	.st1{fill:#F5A06D;}
</style>
<path
   id="polygon134"
   class="st0"
   inkscape:label="polygon134"
   d="M 222.65969 191.35 L 209.31984 266.17031 L 240.96047 329.53945 L 187.15969 329.53945 L 179.98 372.02969 L 196.31008 403.92031 L 365.23 403.92031 L 371.19094 371.98086 L 643.14016 372.13906 L 661.90969 266.17031 L 624.0093 191.35 L 222.65969 191.35 z M 254.64992 223.65078 L 292.05031 223.65078 L 290.31984 233.20937 L 277.23 233.20937 L 271.40969 266.17031 L 260.2593 266.17031 L 266.07961 233.20937 L 252.98977 233.20937 L 254.64992 223.65078 z M 296.69094 223.65078 L 307.83938 223.65078 L 300.36086 266.17031 L 289.21047 266.17031 L 296.69094 223.65078 z M 314.21047 223.65078 L 325.36086 223.65078 L 319.54055 256.53945 L 338.64992 256.53945 L 336.98977 266.17031 L 306.73 266.17031 L 314.21047 223.65078 z M 349.53078 223.65078 L 367.81008 223.65078 C 375.57002 223.65078 379.99953 227.10959 379.99953 233.61953 C 379.99953 239.01953 376.46932 243.04 372.58938 244.35 C 375.83932 245.67 377.91945 248.72037 377.91945 252.67031 C 377.91945 261.12025 370.92955 266.17031 361.57961 266.17031 L 342.05031 266.17031 L 349.53078 223.65078 z M 401.39992 223.65078 L 412.74953 223.65078 L 420.98977 266.17031 L 409.98 266.17031 L 408.46047 257.93008 L 392.9507 257.93008 L 388.38039 266.17031 L 377.30031 266.17031 L 401.39992 223.65078 z M 504.71047 223.65078 L 503.05031 233.20937 L 483.51906 233.20937 L 482.33938 239.85977 L 500.06984 239.85977 L 498.48 249.20937 L 480.67922 249.20937 L 479.42922 256.54922 L 498.89016 256.54922 L 497.23 266.18008 L 466.7593 266.18008 L 474.23977 223.66055 L 504.71047 223.65078 z M 522.15969 223.65078 L 559.56008 223.65078 L 557.82961 233.20937 L 544.73977 233.20937 L 538.91945 266.17031 L 527.76906 266.17031 L 533.58938 233.20937 L 520.49953 233.20937 L 522.15969 223.65078 z M 564.2007 223.65078 L 575.34914 223.65078 L 567.87063 266.17031 L 556.72023 266.17031 L 564.2007 223.65078 z M 581.72023 223.65078 L 592.87063 223.65078 L 587.05031 256.53945 L 606.15969 256.53945 L 604.49953 266.17031 L 574.23977 266.17031 L 581.72023 223.65078 z M 432.14016 223.66055 L 443.29055 223.66055 L 440.09914 241.73086 L 456.57961 223.66055 L 470.0093 223.66055 L 450.14016 244.92031 L 463.08938 266.18008 L 450.41945 266.18008 L 439.13039 247.13906 L 435.81008 266.18008 L 424.65969 266.18008 L 432.14016 223.66055 z M 358.53078 232.78945 L 357.14016 240.48086 L 363.5093 240.48086 C 366.96924 240.48086 369.2593 239.10049 369.2593 235.91055 C 369.2593 233.76055 367.86992 232.78945 364.89992 232.78945 L 358.53078 232.78945 z M 404.71047 236.81094 L 397.99953 248.78945 L 406.86086 248.78945 L 404.71047 236.81094 z M 355.69094 248.78945 L 354.23 257.02969 L 361.71047 257.02969 C 365.10047 257.02969 367.31984 255.09039 367.31984 252.25039 C 367.31984 250.10039 366.06945 248.78945 363.16945 248.78945 L 355.69094 248.78945 z M 285.78078 287.01992 L 315.7007 287.01992 L 313.97023 296.65078 L 295.06008 296.65078 L 293.61086 305.1 L 310.98977 305.1 L 309.32961 314.51992 L 291.9507 314.51992 L 289.31984 329.54922 L 278.30031 329.54922 L 278.30031 329.53945 L 285.78078 287.01992 z M 320.96047 287.01992 L 339.31008 287.01992 C 347.68991 287.01992 352.88039 291.59063 352.88039 299.49063 C 352.88039 307.11046 348.37944 312.16094 342.07961 314.31094 L 349.76906 329.53945 L 337.99953 329.53945 L 331.21047 315.48086 L 326.98 315.48086 L 324.48977 329.53945 L 313.48 329.53945 L 320.96047 287.01992 z M 391.17922 287.01992 L 391.17922 287.02969 L 391.17727 287.02969 L 389.51906 296.58047 L 369.98977 296.58047 L 368.81008 303.23086 L 386.54055 303.23086 L 384.9507 312.58047 L 367.14992 312.58047 L 365.89992 319.92031 L 385.36086 319.92031 L 383.7007 329.54922 L 353.23 329.54922 L 360.71047 287.02969 L 391.17727 287.02969 L 391.17922 287.01992 z M 396.65969 287.01992 L 406.7007 287.01992 L 415.29055 304.40078 L 430.11086 287.01992 L 440.56984 287.01992 L 433.08938 329.53945 L 422.2007 329.53945 L 426.41945 305.02969 L 412.84914 320.19961 L 412.57961 320.19961 L 412.57961 320.18984 L 404.33938 304.8207 L 400.12063 329.53945 L 389.17922 329.53945 L 396.65969 287.01992 z M 445.05031 287.01992 L 482.4507 287.01992 L 480.72023 296.58047 L 467.63039 296.58047 L 461.81008 329.53945 L 450.65969 329.53945 L 456.48 296.58047 L 443.39016 296.58047 L 445.05031 287.01992 z M 487.08938 287.01992 L 498.23977 287.01992 L 490.7593 329.53945 L 479.61086 329.53945 L 487.08938 287.01992 z M 504.61086 287.01992 L 520.32961 287.01992 C 532.30948 287.01992 538.61086 293.74021 538.61086 304.68008 C 538.61086 319.14982 528.35935 329.53945 513.32961 329.53945 L 497.13039 329.53945 L 504.61086 287.01992 z M 577.46047 287.01992 L 577.46047 287.02969 L 577.45852 287.02969 L 575.80031 296.58047 L 556.26906 296.58047 L 555.08938 303.23086 L 572.81984 303.23086 L 571.23 312.58047 L 553.42922 312.58047 L 552.17922 319.92031 L 571.64016 319.92031 L 569.98 329.54922 L 539.5093 329.54922 L 546.98977 287.02969 L 577.45852 287.02969 L 577.46047 287.01992 z M 582.94094 287.01992 L 592.90969 287.01992 L 605.31008 311.18984 L 609.59914 287.01992 L 620.32961 287.01992 L 612.84914 329.53945 L 604.2593 329.53945 L 590.69094 303.92031 L 586.19094 329.53945 L 575.46047 329.53945 L 582.94094 287.01992 z M 330.31008 296.3793 L 328.5093 306.61953 L 335.37063 306.61953 C 339.66046 306.61953 342.08938 304.39952 342.08938 300.52969 C 342.08938 298.03969 340.57078 296.3793 337.03078 296.3793 L 330.31008 296.3793 z M 513.89016 296.5707 L 509.80031 319.91055 L 514.44094 319.91055 C 522.47081 319.91055 527.46047 314.08956 527.46047 305.77969 C 527.46047 300.02969 524.40984 296.5707 518.31984 296.5707 L 513.89016 296.5707 z M 314.03078 351.1293 C 317.79078 351.1293 319.92922 353.34047 319.92922 356.33047 C 319.92922 359.28047 318.19043 361.76094 315.87063 364.31094 L 313.89016 366.49063 L 319.02688 366.49063 L 319.03078 366.46914 L 319.03078 366.49063 L 319.02688 366.49063 L 318.06008 372.03945 L 302.03078 372.03945 L 302.03078 371.91055 L 309.71047 363.35977 C 311.35047 361.54977 312.96047 359.81008 312.96047 358.43008 C 312.96047 357.63008 312.48914 357.09023 311.34914 357.09023 C 309.33914 357.09023 306.3507 358.72977 304.9507 359.60977 L 306.01906 353.43984 C 307.89906 352.22984 310.75078 351.1293 314.03078 351.1293 z M 232.39992 351.43984 L 238.13039 351.43984 L 243.32961 361.36953 L 245.11086 351.43984 L 251.38039 351.43984 L 247.7593 372.02969 L 242.7593 372.02969 L 236.92922 361.40078 L 235.05031 372.02969 L 228.78078 372.02969 L 232.39992 351.43984 z M 254.59914 351.43984 L 261.11086 351.43984 L 257.48977 372.02969 L 250.98 372.02969 L 254.59914 351.43984 z M 263.69094 351.43984 L 282.32961 351.43984 L 281.36086 356.96914 L 275.29055 356.96914 L 272.64016 372.02969 L 266.13039 372.02969 L 268.78078 356.96914 L 262.71047 356.96914 L 263.69094 351.43984 z M 284.91945 351.43984 L 293.2007 351.43984 C 299.0307 351.43984 302.12062 354.68927 302.12063 359.88906 C 302.12063 367.19906 296.8894 372.02969 289.57961 372.02969 L 281.30031 372.02969 L 284.91945 351.43984 z M 324.15969 351.43984 L 338.64992 351.43984 L 338.64992 351.53945 L 333.28078 359.59023 C 334.96078 360.66023 336.15969 362.30992 336.15969 364.51992 C 336.15969 369.34992 332.27023 372.36953 326.97023 372.36953 C 324.12048 372.36953 322.0407 371.6293 320.7007 370.6293 L 321.71047 364.90078 C 323.15047 366.34078 325.06055 367.15078 327.04055 367.15078 C 328.9503 367.15078 330.08937 366.27984 330.08938 364.93984 C 330.08938 363.36009 328.61031 362.83047 326.80031 362.83047 C 326.43031 362.83047 326.03039 362.86078 325.63039 362.90078 L 325.63039 362.83047 L 329.51906 357.00039 L 323.17922 357.00039 L 324.15969 351.43984 z M 290.31008 356.98086 L 288.63039 366.46914 L 290.22023 366.46914 C 293.44023 366.46914 295.64992 364.18992 295.64992 360.76992 C 295.64992 358.38992 294.37995 356.98086 291.89016 356.98086 L 290.31008 356.98086 z "
   transform="translate(-179.98,-191.35)" /><g
   id="g194"
   transform="translate(-179.98,-191.35)">
	
	
</g>
</svg>
