<?xml version="1.0" encoding="UTF-8" standalone="no"?>
<!-- Generator: Adobe Illustrator 27.5.0, SVG Export Plug-In . SVG Version: 6.00 Build 0)  -->

<svg
   version="1.1"
   id="Layer_1"
   x="0px"
   y="0px"
   viewBox="0 0 481.92998 212.57"
   xml:space="preserve"
   sodipodi:docname="NITD23_logo_lilla.svg"
   width="481.92999"
   height="212.57001"
   inkscape:version="1.2.2 (b0a8486, 2022-12-01)"
   xmlns:inkscape="http://www.inkscape.org/namespaces/inkscape"
   xmlns:sodipodi="http://sodipodi.sourceforge.net/DTD/sodipodi-0.dtd"
   xmlns="http://www.w3.org/2000/svg"
   xmlns:svg="http://www.w3.org/2000/svg"><defs
   id="defs199" /><sodipodi:namedview
   id="namedview197"
   pagecolor="#ffffff"
   bordercolor="#000000"
   borderopacity="0.25"
   inkscape:showpageshadow="2"
   inkscape:pageopacity="0.0"
   inkscape:pagecheckerboard="0"
   inkscape:deskcolor="#d1d1d1"
   showgrid="false"
   inkscape:zoom="0.39645207"
   inkscape:cx="20.178984"
   inkscape:cy="108.46204"
   inkscape:window-width="1541"
   inkscape:window-height="694"
   inkscape:window-x="0"
   inkscape:window-y="25"
   inkscape:window-maximized="0"
   inkscape:current-layer="Layer_1" />
<style
   type="text/css"
   id="style132">
	.st0{fill:#983590;}
	.st1{fill:#F5A06D;}
</style>
<g
   id="g194"
   transform="translate(-179.98,-191.35)">
	<polygon
   class="st0"
   points="222.66,191.35 624.01,191.35 661.91,266.17 643.14,372.14 371.19,371.98 365.23,403.92 196.31,403.92 179.98,372.03 187.16,329.54 240.96,329.54 209.32,266.17 "
   id="polygon134" />
	<g
   id="g192">
		<g
   id="g156">
			<path
   class="st1"
   d="m 254.65,223.65 h 37.4 l -1.73,9.56 h -13.09 l -5.82,32.96 h -11.15 l 5.82,-32.96 h -13.09 z"
   id="path136" />
			<path
   class="st1"
   d="m 300.36,266.17 h -11.15 l 7.48,-42.52 h 11.15 z"
   id="path138" />
			<path
   class="st1"
   d="m 314.21,223.65 h 11.15 l -5.82,32.89 h 19.11 l -1.66,9.63 h -30.26 z"
   id="path140" />
			<path
   class="st1"
   d="m 377.92,252.67 c 0,8.45 -6.99,13.5 -16.34,13.5 h -19.53 l 7.48,-42.52 h 18.28 c 7.76,0 12.19,3.46 12.19,9.97 0,5.4 -3.53,9.42 -7.41,10.73 3.25,1.32 5.33,4.37 5.33,8.32 z m -23.69,4.36 h 7.48 c 3.39,0 5.61,-1.94 5.61,-4.78 0,-2.15 -1.25,-3.46 -4.15,-3.46 h -7.48 z m 9.28,-16.55 c 3.46,0 5.75,-1.38 5.75,-4.57 0,-2.15 -1.39,-3.12 -4.36,-3.12 h -6.37 l -1.39,7.69 z"
   id="path142" />
			<path
   class="st1"
   d="m 412.75,223.65 8.24,42.52 h -11.01 l -1.52,-8.24 h -15.51 l -4.57,8.24 H 377.3 l 24.1,-42.52 z M 398,248.79 h 8.86 l -2.15,-11.98 z"
   id="path144" />
			<path
   class="st1"
   d="m 440.1,241.73 16.48,-18.07 h 13.43 l -19.87,21.26 12.95,21.26 h -12.67 l -11.29,-19.04 -3.32,19.04 h -11.15 l 7.48,-42.52 h 11.15 z"
   id="path146" />
			<path
   class="st1"
   d="m 504.71,223.65 -1.66,9.56 h -19.53 l -1.18,6.65 h 17.73 l -1.59,9.35 h -17.8 l -1.25,7.34 h 19.46 l -1.66,9.63 h -30.47 l 7.48,-42.52 z"
   id="path148" />
			<path
   class="st1"
   d="m 522.16,223.65 h 37.4 l -1.73,9.56 h -13.09 l -5.82,32.96 h -11.15 l 5.82,-32.96 H 520.5 Z"
   id="path150" />
			<path
   class="st1"
   d="m 567.87,266.17 h -11.15 l 7.48,-42.52 h 11.15 z"
   id="path152" />
			<path
   class="st1"
   d="m 581.72,223.65 h 11.15 l -5.82,32.89 h 19.11 l -1.66,9.63 h -30.26 z"
   id="path154" />
		</g>
		<g
   id="g176">
			<path
   class="st1"
   d="m 278.3,329.54 7.48,-42.52 h 29.92 l -1.73,9.63 h -18.91 l -1.45,8.45 h 17.38 l -1.66,9.42 h -17.38 l -2.63,15.03 H 278.3 Z"
   id="path158" />
			<path
   class="st1"
   d="m 326.98,315.48 -2.49,14.06 h -11.01 l 7.48,-42.52 h 18.35 c 8.38,0 13.57,4.57 13.57,12.47 0,7.62 -4.5,12.67 -10.8,14.82 l 7.69,15.23 H 338 l -6.79,-14.06 z m 1.53,-8.86 h 6.86 c 4.29,0 6.72,-2.22 6.72,-6.09 0,-2.49 -1.52,-4.15 -5.06,-4.15 h -6.72 z"
   id="path160" />
			<path
   class="st1"
   d="m 391.18,287.02 -1.66,9.56 h -19.53 l -1.18,6.65 h 17.73 l -1.59,9.35 h -17.8 l -1.25,7.34 h 19.46 l -1.66,9.63 h -30.47 l 7.48,-42.52 h 30.47 z"
   id="path162" />
			<path
   class="st1"
   d="m 412.58,320.19 -8.24,-15.37 -4.22,24.72 h -10.94 l 7.48,-42.52 h 10.04 l 8.59,17.38 14.82,-17.38 h 10.46 l -7.48,42.52 H 422.2 l 4.22,-24.51 -13.57,15.17 h -0.27 z"
   id="path164" />
			<path
   class="st1"
   d="m 445.05,287.02 h 37.4 l -1.73,9.56 h -13.09 l -5.82,32.96 h -11.15 l 5.82,-32.96 h -13.09 z"
   id="path166" />
			<path
   class="st1"
   d="m 490.76,329.54 h -11.15 l 7.48,-42.52 h 11.15 z"
   id="path168" />
			<path
   class="st1"
   d="m 504.61,287.02 h 15.72 c 11.98,0 18.28,6.72 18.28,17.66 0,14.47 -10.25,24.86 -25.28,24.86 h -16.2 z m 9.83,32.89 c 8.03,0 13.02,-5.82 13.02,-14.13 0,-5.75 -3.05,-9.21 -9.14,-9.21 h -4.43 l -4.09,23.34 z"
   id="path170" />
			<path
   class="st1"
   d="m 577.46,287.02 -1.66,9.56 h -19.53 l -1.18,6.65 h 17.73 l -1.59,9.35 h -17.8 l -1.25,7.34 h 19.46 l -1.66,9.63 h -30.47 l 7.48,-42.52 h 30.47 z"
   id="path172" />
			<path
   class="st1"
   d="m 612.85,329.54 h -8.59 l -13.57,-25.62 -4.5,25.62 h -10.73 l 7.48,-42.52 h 9.97 l 12.4,24.17 4.29,-24.17 h 10.73 z"
   id="path174" />
		</g>
		<g
   id="g190">
			<path
   class="st1"
   d="m 247.76,372.03 h -5 l -5.83,-10.63 -1.88,10.63 h -6.27 l 3.62,-20.59 h 5.73 l 5.2,9.93 1.78,-9.93 h 6.27 z"
   id="path178" />
			<path
   class="st1"
   d="m 257.49,372.03 h -6.51 l 3.62,-20.59 h 6.51 z"
   id="path180" />
			<path
   class="st1"
   d="m 263.69,351.44 h 18.64 l -0.97,5.53 h -6.07 l -2.65,15.06 h -6.51 l 2.65,-15.06 h -6.07 z"
   id="path182" />
			<path
   class="st1"
   d="m 284.92,351.44 h 8.28 c 5.83,0 8.92,3.25 8.92,8.45 0,7.31 -5.23,12.14 -12.54,12.14 h -8.28 z m 5.3,15.03 c 3.22,0 5.43,-2.28 5.43,-5.7 0,-2.38 -1.27,-3.79 -3.76,-3.79 h -1.58 l -1.68,9.49 z"
   id="path184" />
			<path
   class="st1"
   d="m 319.03,366.47 -0.97,5.57 h -16.03 v -0.13 l 7.68,-8.55 c 1.64,-1.81 3.25,-3.55 3.25,-4.93 0,-0.8 -0.47,-1.34 -1.61,-1.34 -2.01,0 -5,1.64 -6.4,2.52 l 1.07,-6.17 c 1.88,-1.21 4.73,-2.31 8.01,-2.31 3.76,0 5.9,2.21 5.9,5.2 0,2.95 -1.74,5.43 -4.06,7.98 l -1.98,2.18 h 5.14 z"
   id="path186" />
			<path
   class="st1"
   d="m 324.16,351.44 h 14.49 v 0.1 l -5.37,8.05 c 1.68,1.07 2.88,2.72 2.88,4.93 0,4.83 -3.89,7.85 -9.19,7.85 -2.85,0 -4.93,-0.74 -6.27,-1.74 l 1.01,-5.73 c 1.44,1.44 3.35,2.25 5.33,2.25 1.91,0 3.05,-0.87 3.05,-2.21 0,-1.58 -1.48,-2.11 -3.29,-2.11 -0.37,0 -0.77,0.03 -1.17,0.07 v -0.07 l 3.89,-5.83 h -6.34 z"
   id="path188" />
		</g>
	</g>
</g>
</svg>
