<?xml version="1.0" encoding="utf-8"?>
<!-- Generator: Adobe Illustrator 27.5.0, SVG Export Plug-In . SVG Version: 6.00 Build 0)  -->
<svg version="1.1" id="Layer_1" xmlns="http://www.w3.org/2000/svg" xmlns:xlink="http://www.w3.org/1999/xlink" x="0px" y="0px"
	 viewBox="0 0 841.89 595.28" style="enable-background:new 0 0 841.89 595.28;" xml:space="preserve">
<style type="text/css">
	.st0{fill:#983590;}
	.st1{fill:#F5A06D;}
</style>
<g>
	<polygon class="st0" points="240.96,329.54 209.32,266.17 222.66,191.35 624.01,191.35 661.91,266.17 643.14,372.14 371.19,371.98 
		365.23,403.92 196.31,403.92 179.98,372.03 187.16,329.54 	"/>
	<g>
		<g>
			<path class="st1" d="M254.65,223.65h37.4l-1.73,9.56h-13.09l-5.82,32.96h-11.15l5.82-32.96h-13.09L254.65,223.65z"/>
			<path class="st1" d="M300.36,266.17h-11.15l7.48-42.52h11.15L300.36,266.17z"/>
			<path class="st1" d="M314.21,223.65h11.15l-5.82,32.89h19.11l-1.66,9.63h-30.26L314.21,223.65z"/>
			<path class="st1" d="M377.92,252.67c0,8.45-6.99,13.5-16.34,13.5h-19.53l7.48-42.52h18.28c7.76,0,12.19,3.46,12.19,9.97
				c0,5.4-3.53,9.42-7.41,10.73C375.84,245.67,377.92,248.72,377.92,252.67z M354.23,257.03h7.48c3.39,0,5.61-1.94,5.61-4.78
				c0-2.15-1.25-3.46-4.15-3.46h-7.48L354.23,257.03z M363.51,240.48c3.46,0,5.75-1.38,5.75-4.57c0-2.15-1.39-3.12-4.36-3.12h-6.37
				l-1.39,7.69H363.51z"/>
			<path class="st1" d="M412.75,223.65l8.24,42.52h-11.01l-1.52-8.24h-15.51l-4.57,8.24H377.3l24.1-42.52L412.75,223.65
				L412.75,223.65z M398,248.79h8.86l-2.15-11.98L398,248.79z"/>
			<path class="st1" d="M440.1,241.73l16.48-18.07h13.43l-19.87,21.26l12.95,21.26h-12.67l-11.29-19.04l-3.32,19.04h-11.15
				l7.48-42.52h11.15L440.1,241.73z"/>
			<path class="st1" d="M504.71,223.65l-1.66,9.56h-19.53l-1.18,6.65h17.73l-1.59,9.35h-17.8l-1.25,7.34h19.46l-1.66,9.63h-30.47
				l7.48-42.52L504.71,223.65L504.71,223.65z"/>
			<path class="st1" d="M522.16,223.65h37.4l-1.73,9.56h-13.09l-5.82,32.96h-11.15l5.82-32.96H520.5L522.16,223.65z"/>
			<path class="st1" d="M567.87,266.17h-11.15l7.48-42.52h11.15L567.87,266.17z"/>
			<path class="st1" d="M581.72,223.65h11.15l-5.82,32.89h19.11l-1.66,9.63h-30.26L581.72,223.65z"/>
		</g>
		<g>
			<path class="st1" d="M278.3,329.54l7.48-42.52h29.92l-1.73,9.63h-18.91l-1.45,8.45h17.38l-1.66,9.42h-17.38l-2.63,15.03H278.3
				V329.54z"/>
			<path class="st1" d="M326.98,315.48l-2.49,14.06h-11.01l7.48-42.52h18.35c8.38,0,13.57,4.57,13.57,12.47
				c0,7.62-4.5,12.67-10.8,14.82l7.69,15.23H338l-6.79-14.06L326.98,315.48L326.98,315.48z M328.51,306.62h6.86
				c4.29,0,6.72-2.22,6.72-6.09c0-2.49-1.52-4.15-5.06-4.15h-6.72L328.51,306.62z"/>
			<path class="st1" d="M391.18,287.02l-1.66,9.56h-19.53l-1.18,6.65h17.73l-1.59,9.35h-17.8l-1.25,7.34h19.46l-1.66,9.63h-30.47
				l7.48-42.52h30.47L391.18,287.02L391.18,287.02z"/>
			<path class="st1" d="M412.58,320.19l-8.24-15.37l-4.22,24.72h-10.94l7.48-42.52h10.04l8.59,17.38l14.82-17.38h10.46l-7.48,42.52
				H422.2l4.22-24.51l-13.57,15.17h-0.27L412.58,320.19L412.58,320.19z"/>
			<path class="st1" d="M445.05,287.02h37.4l-1.73,9.56h-13.09l-5.82,32.96h-11.15l5.82-32.96h-13.09L445.05,287.02z"/>
			<path class="st1" d="M490.76,329.54h-11.15l7.48-42.52h11.15L490.76,329.54z"/>
			<path class="st1" d="M504.61,287.02h15.72c11.98,0,18.28,6.72,18.28,17.66c0,14.47-10.25,24.86-25.28,24.86h-16.2L504.61,287.02z
				 M514.44,319.91c8.03,0,13.02-5.82,13.02-14.13c0-5.75-3.05-9.21-9.14-9.21h-4.43l-4.09,23.34H514.44z"/>
			<path class="st1" d="M577.46,287.02l-1.66,9.56h-19.53l-1.18,6.65h17.73l-1.59,9.35h-17.8l-1.25,7.34h19.46l-1.66,9.63h-30.47
				l7.48-42.52h30.47V287.02z"/>
			<path class="st1" d="M612.85,329.54h-8.59l-13.57-25.62l-4.5,25.62h-10.73l7.48-42.52h9.97l12.4,24.17l4.29-24.17h10.73
				L612.85,329.54z"/>
		</g>
		<g>
			<path class="st1" d="M247.76,372.03h-5l-5.83-10.63l-1.88,10.63h-6.27l3.62-20.59h5.73l5.2,9.93l1.78-9.93h6.27L247.76,372.03z"
				/>
			<path class="st1" d="M257.49,372.03h-6.51l3.62-20.59h6.51L257.49,372.03z"/>
			<path class="st1" d="M263.69,351.44h18.64l-0.97,5.53h-6.07l-2.65,15.06h-6.51l2.65-15.06h-6.07L263.69,351.44z"/>
			<path class="st1" d="M284.92,351.44h8.28c5.83,0,8.92,3.25,8.92,8.45c0,7.31-5.23,12.14-12.54,12.14h-8.28L284.92,351.44z
				 M290.22,366.47c3.22,0,5.43-2.28,5.43-5.7c0-2.38-1.27-3.79-3.76-3.79h-1.58l-1.68,9.49L290.22,366.47L290.22,366.47z"/>
			<path class="st1" d="M319.03,366.47l-0.97,5.57h-16.03v-0.13l7.68-8.55c1.64-1.81,3.25-3.55,3.25-4.93c0-0.8-0.47-1.34-1.61-1.34
				c-2.01,0-5,1.64-6.4,2.52l1.07-6.17c1.88-1.21,4.73-2.31,8.01-2.31c3.76,0,5.9,2.21,5.9,5.2c0,2.95-1.74,5.43-4.06,7.98
				l-1.98,2.18h5.14L319.03,366.47L319.03,366.47z"/>
			<path class="st1" d="M324.16,351.44h14.49v0.1l-5.37,8.05c1.68,1.07,2.88,2.72,2.88,4.93c0,4.83-3.89,7.85-9.19,7.85
				c-2.85,0-4.93-0.74-6.27-1.74l1.01-5.73c1.44,1.44,3.35,2.25,5.33,2.25c1.91,0,3.05-0.87,3.05-2.21c0-1.58-1.48-2.11-3.29-2.11
				c-0.37,0-0.77,0.03-1.17,0.07v-0.07l3.89-5.83h-6.34L324.16,351.44z"/>
		</g>
	</g>
</g>
</svg>
